<svg width="1093" height="1024" viewBox="0 0 1093 1024" fill="none" xmlns="http://www.w3.org/2000/svg">
<path d="M994.595 0L934.322 34.1333C873.873 68.2667 753.326 136.533 694.635 204.8C636.119 273.067 639.633 341.333 632.604 409.6C625.576 477.867 608.003 546.133 623.818 614.4C639.633 682.667 688.836 750.933 772.656 819.2C856.3 887.467 974.738 955.733 1033.78 989.867L1093 1024H0V989.867C0 955.733 0 887.467 0 819.2C0 750.933 0 682.667 0 614.4C0 546.133 0 477.867 0 409.6C0 341.333 0 273.067 0 204.8C0 136.533 0 68.2667 0 34.1333V0H994.595Z" fill="white"/>
</svg>
